<svg width="2058" height="2058" viewBox="0 0 2058 2058" fill="none" xmlns="http://www.w3.org/2000/svg">
<path d="M1387.2 1744.07C1326.54 1744.3 1265.87 1744.52 1201.4 1744.81C1165.7 1745.04 1133.81 1745.21 1100.1 1745.1C1053.41 1744.07 1008.54 1743.31 961.858 1742.11C929.357 1737.46 898.661 1733.24 867.965 1729.02C812.262 1708.62 753.384 1694.22 701.426 1666.74C512.796 1566.96 391.36 1412.49 351.543 1201.39C318.313 1025.2 356.927 861.607 457.503 712.947C478.856 681.386 505.519 652.491 508.302 611.636C508.766 604.824 508.985 597.996 511.228 589.571C518.565 588.423 524.101 588.332 529.398 589.415C604.494 604.77 677.552 533.102 661.501 454.884C658.216 441.76 656.115 429.406 650.739 418.696C618.904 355.271 566.556 324.735 496.028 324.413C541.491 183.404 674.69 84.966 816.357 83.8516C981.686 82.5511 1114.21 189.38 1154.07 326.105C1174.9 397.535 1186.38 471.713 1201.58 544.754C1221.81 641.934 1241.61 739.204 1261.41 836.474C1263.03 844.439 1263.21 852.698 1262.79 862.251C1243.08 823.867 1217.28 789.581 1182.57 762.72C1087.25 688.953 952.748 688.122 858.837 763.828C806.944 805.662 772.081 858.159 763.664 927.063C761.669 931.183 760.9 934.533 760.56 937.926C744.266 1100.39 775.653 1252.8 860.159 1392.82C944.854 1533.16 1062.51 1636.97 1215.99 1696.07C1271.06 1717.27 1330.02 1728.37 1387.2 1744.07ZM979.125 395.117C979.458 386.209 980.352 377.281 980.034 368.396C977.689 302.997 946.067 255.676 886.749 230.252C827.346 204.792 770.659 214.356 722.665 258.586C674.669 302.817 661.242 358.337 680.482 420.004C700.65 484.643 766.021 528.973 831.434 525.736C904.592 522.116 960.027 474.23 979.125 395.117Z" fill="#F70B8D"/>
<path d="M765.09 926.312C772.08 858.159 806.943 805.662 858.836 763.828C952.746 688.122 1087.25 688.953 1182.57 762.72C1217.28 789.581 1243.08 823.867 1262.96 864.058C1301.62 1041.84 1338.85 1219.25 1377.02 1399.71C1386.2 1445.54 1394.44 1488.3 1400.93 1531.15C1392.34 1531.03 1385.37 1531.61 1378.67 1530.54C1158.91 1495.23 990.883 1380.39 868.545 1196.62C813.888 1114.52 781.748 1023.24 765.09 926.312Z" fill="#FFB02F"/>
<path d="M1402.67 1531.07C1394.44 1488.3 1386.2 1445.54 1377.83 1401.01C1428.71 1393.85 1479.71 1388.17 1530.77 1383.13C1639.16 1372.44 1747.58 1362.05 1856 1351.65C1866.9 1350.61 1877.91 1349.62 1888.82 1349.97C1912.56 1350.74 1929.87 1366.14 1929.86 1389.82C1929.84 1450.09 1931.36 1510.63 1926.24 1570.55C1918.84 1657.11 1836.09 1737.8 1749.77 1740.78C1633.39 1744.79 1516.82 1743.34 1399.72 1743.39C1427.51 1732.09 1440.91 1713.34 1435.71 1687.01C1425.41 1634.89 1413.76 1583.03 1402.67 1531.07Z" fill="#F70B8D"/>
<path d="M1400.93 1531.15C1413.76 1583.03 1425.42 1634.89 1435.71 1687.01C1440.91 1713.34 1427.51 1732.09 1397.58 1743.24C1393.86 1743.99 1391.66 1744.04 1388.33 1744.08C1330.02 1728.37 1271.06 1717.27 1215.99 1696.07C1062.51 1636.97 944.853 1533.15 860.159 1392.82C775.653 1252.8 744.266 1100.39 760.559 937.926C760.9 934.533 761.668 931.183 763.664 927.062C781.748 1023.24 813.888 1114.52 868.545 1196.62C990.884 1380.39 1158.91 1495.23 1378.67 1530.54C1385.37 1531.61 1392.34 1531.03 1400.93 1531.15Z" fill="#02A5EC"/>
<path d="M494.49 324.696C566.555 324.735 618.903 355.271 650.737 418.696C656.113 429.406 658.214 441.76 660.032 455.025C598.46 483.241 538.591 509.582 479.036 536.612C472.031 539.791 466.745 546.76 460.663 551.972C456.984 563.894 454.076 576.13 449.384 587.638C445.599 596.921 441.591 609.198 434.089 612.936C427.689 616.125 414.114 611.62 407.252 606.11C355.867 564.847 337.106 510.377 352.178 446.994C367.036 384.518 408.384 345.302 470.724 328.915C477.977 327.008 485.536 326.264 494.49 324.696Z" fill="#FFB02F"/>
<path d="M1101.92 1745.37C1133.81 1745.21 1165.7 1745.04 1199.46 1745.14C1201.33 1777.42 1201.33 1809.43 1201.33 1843.93C1229.66 1843.93 1256.14 1843.51 1282.6 1844.05C1305.17 1844.52 1322.12 1855.15 1330.57 1876.32C1337.77 1894.35 1335.52 1913.38 1320.58 1925.34C1309.21 1934.44 1292.9 1942.07 1278.7 1942.21C1155.54 1943.48 1032.36 1942.91 906.406 1941.53C881.693 1931.32 869.512 1914.65 870.291 1891.45C871.043 1869.05 883.73 1852.8 905.66 1846.57C915.835 1843.67 927.128 1844.71 939.888 1843.87C994.679 1843.78 1047.49 1843.78 1101.92 1843.78C1101.92 1809.13 1101.92 1777.25 1101.92 1745.37Z" fill="#FFB02F"/>
<path d="M937.912 1843.96C927.126 1844.71 915.834 1843.67 905.659 1846.57C883.729 1852.8 871.042 1869.05 870.29 1891.45C869.511 1914.65 881.692 1931.32 904.488 1941.21C822.482 1942.48 739.612 1943.08 656.746 1942.75C625.657 1942.63 604.781 1921.86 604.748 1893.66C604.716 1865.72 625.868 1844.51 656.598 1844.08C709.331 1843.35 762.106 1842.94 814.813 1844.34C832.233 1844.8 838.549 1838.85 842.321 1822.92C849.559 1792.34 858.866 1762.26 867.639 1730.5C898.66 1733.24 929.356 1737.46 961.664 1743.6C954.821 1778.34 946.367 1811.15 937.912 1843.96Z" fill="#FF832E"/>
<path d="M461.279 553.211C466.745 546.76 472.031 539.791 479.036 536.612C538.592 509.582 598.46 483.241 659.703 456.553C677.55 533.102 604.493 604.77 529.396 589.415C524.1 588.332 518.563 588.423 511.284 587.766C493.584 576.527 477.74 565.488 461.279 553.211Z" fill="#FF812E"/>
<path d="M978.811 396.908C960.027 474.23 904.593 522.115 831.434 525.736C766.021 528.973 700.651 484.643 680.483 420.004C661.242 358.336 674.669 302.817 722.665 258.586C770.66 214.355 827.347 204.791 886.749 230.252C946.067 255.676 977.689 302.997 980.034 368.396C980.353 377.281 979.458 386.209 978.811 396.908ZM812.758 303.935C771.626 316.177 750.608 349.915 760.459 387.884C769.708 423.533 805.384 445.901 840.7 438.193C877.321 430.201 900.643 396.608 894.575 360.592C888.004 321.588 856.366 298.598 812.758 303.935Z" fill="#E5E4E5"/>
<path d="M939.889 1843.87C946.368 1811.15 954.822 1778.34 963.47 1744.04C1008.54 1743.31 1053.41 1744.07 1100.1 1745.1C1101.92 1777.25 1101.92 1809.13 1101.92 1843.78C1047.49 1843.78 994.679 1843.78 939.889 1843.87Z" fill="#FFFDFB"/>
<path d="M814.372 303.711C856.365 298.599 888.004 321.588 894.575 360.593C900.643 396.609 877.321 430.201 840.699 438.194C805.384 445.902 769.708 423.533 760.459 387.884C750.608 349.915 771.626 316.177 814.372 303.711Z" fill="#242424"/>
</svg>
